<svg width="24" height="24" viewBox="0 0 24 24" fill="none" xmlns="http://www.w3.org/2000/svg">
<path d="M13.2733 8.85448C13.6472 8.85448 13.9927 9.05396 14.1796 9.37778L15.4529 11.5831C15.6399 11.9069 15.6399 12.3059 15.4529 12.6297L14.1796 14.8351C13.9927 15.1589 13.6472 15.3584 13.2733 15.3584H10.7267C10.3528 15.3584 10.0073 15.1589 9.82036 14.8351L8.5471 12.6297C8.36014 12.3059 8.36014 11.9069 8.5471 11.5831L9.82036 9.37778C10.0073 9.05396 10.3528 8.85448 10.7267 8.85448H13.2733Z" fill="white"/>
<path d="M19.6801 5.17724C20.0541 5.17724 20.3996 5.37672 20.5865 5.70054L21.8598 7.90589C22.0467 8.22971 22.0467 8.62867 21.8598 8.95249L20.5865 11.1578C20.3996 11.4817 20.0541 11.6811 19.6801 11.6811H17.1336C16.7597 11.6811 16.4142 11.4817 16.2272 11.1578L14.954 8.95249C14.767 8.62867 14.767 8.22971 14.954 7.90589L16.2272 5.70054C16.4142 5.37672 16.7597 5.17724 17.1336 5.17724H19.6801Z" fill="white"/>
<path d="M6.86638 5.17724C7.24029 5.17724 7.5858 5.37672 7.77276 5.70054L9.04602 7.90589C9.23297 8.22971 9.23297 8.62867 9.04602 8.95249L7.77276 11.1578C7.5858 11.4817 7.24029 11.6811 6.86638 11.6811H4.31986C3.94594 11.6811 3.60043 11.4817 3.41348 11.1578L2.14022 8.95249C1.95326 8.62867 1.95326 8.22971 2.14022 7.90589L3.41348 5.70054C3.60043 5.37672 3.94594 5.17724 4.31986 5.17724H6.86638Z" fill="white"/>
<path d="M13.2733 1.5C13.6472 1.5 13.9927 1.69948 14.1796 2.0233L15.4529 4.22865C15.6399 4.55247 15.6399 4.95143 15.4529 5.27525L14.1796 7.4806C13.9927 7.80442 13.6472 8.0039 13.2733 8.0039H10.7267C10.3528 8.0039 10.0073 7.80442 9.82036 7.4806L8.5471 5.27525C8.36014 4.95143 8.36014 4.55247 8.5471 4.22865L9.82036 2.0233C10.0073 1.69948 10.3528 1.5 10.7267 1.5L13.2733 1.5Z" fill="white"/>
<path d="M13.2733 16.209C13.6472 16.209 13.9927 16.4084 14.1796 16.7323L15.4529 18.9376C15.6399 19.2614 15.6399 19.6604 15.4529 19.9842L14.1796 22.1896C13.9927 22.5134 13.6472 22.7129 13.2733 22.7129H10.7267C10.3528 22.7129 10.0073 22.5134 9.82036 22.1896L8.5471 19.9842C8.36014 19.6604 8.36014 19.2614 8.5471 18.9376L9.82036 16.7323C10.0073 16.4084 10.3528 16.209 10.7267 16.209H13.2733Z" fill="white"/>
<path d="M19.6801 12.5317C20.0541 12.5317 20.3996 12.7312 20.5865 13.055L21.8598 15.2604C22.0467 15.5842 22.0467 15.9831 21.8598 16.307L20.5865 18.5123C20.3996 18.8361 20.0541 19.0356 19.6801 19.0356H17.1336C16.7597 19.0356 16.4142 18.8361 16.2272 18.5123L14.954 16.307C14.767 15.9831 14.767 15.5842 14.954 15.2604L16.2272 13.055C16.4142 12.7312 16.7597 12.5317 17.1336 12.5317H19.6801Z" fill="white"/>
<path d="M6.86638 12.5317C7.24029 12.5317 7.5858 12.7312 7.77276 13.055L9.04602 15.2604C9.23297 15.5842 9.23297 15.9831 9.04602 16.307L7.77276 18.5123C7.5858 18.8361 7.24029 19.0356 6.86638 19.0356H4.31986C3.94594 19.0356 3.60043 18.8361 3.41348 18.5123L2.14022 16.307C1.95326 15.9831 1.95326 15.5842 2.14022 15.2604L3.41348 13.055C3.60043 12.7312 3.94594 12.5317 4.31986 12.5317H6.86638Z" fill="white"/>
</svg>
