<svg width="24" height="24" viewBox="0 0 24 24" fill="none" xmlns="http://www.w3.org/2000/svg">
<path fill-rule="evenodd" clip-rule="evenodd" d="M18.2183 12C18.4733 12.0008 18.6959 12.0784 18.8863 12.2324C19.0766 12.3865 19.1989 12.5905 19.2535 12.8447L19.4175 13.6357C19.6347 13.7272 19.8389 13.8224 20.0299 13.9219C20.221 14.0214 20.4169 14.1437 20.6168 14.2891L21.4068 14.0439C21.643 13.9713 21.8704 13.9805 22.0884 14.0713C22.3065 14.1621 22.4788 14.3079 22.606 14.5078L22.8511 14.916C22.9783 15.1348 23.0242 15.3674 22.9879 15.6123C22.9515 15.8571 22.8332 16.0611 22.6334 16.2246L22.0338 16.7422C22.0701 16.9784 22.0884 17.215 22.0884 17.4512C22.0884 17.6874 22.0701 17.9239 22.0338 18.1602L22.6334 18.6777C22.8332 18.8413 22.9515 19.0503 22.9879 19.3047C23.0242 19.5591 22.9783 19.7956 22.8511 20.0137L22.6334 20.3945C22.5069 20.5944 22.3296 20.7402 22.1021 20.8311C21.8748 20.9217 21.6429 20.931 21.4068 20.8584L20.6168 20.6133C20.4176 20.7594 20.222 20.8819 20.0308 20.9814C19.8397 21.081 19.6355 21.1768 19.4175 21.2676L19.2535 22.0303C19.1997 22.2846 19.0774 22.4937 18.8863 22.6572C18.6952 22.8207 18.4726 22.9023 18.2183 22.9023H17.7818C17.5282 22.903 17.3059 22.8257 17.1148 22.6709C16.9238 22.5161 16.8012 22.3119 16.7466 22.0576L16.5826 21.2676C16.3654 21.176 16.1614 21.08 15.9703 20.9805C15.7792 20.8809 15.5832 20.7586 15.3834 20.6133L14.5933 20.8584C14.3571 20.9311 14.1297 20.9219 13.9117 20.8311C13.6936 20.7402 13.5213 20.5944 13.3941 20.3945L13.148 19.9863C13.0209 19.7691 12.976 19.5375 13.0123 19.292C13.0486 19.0463 13.1669 18.8413 13.3668 18.6777L13.9664 18.1602C13.93 17.9239 13.9117 17.6874 13.9117 17.4512C13.9117 17.215 13.93 16.9784 13.9664 16.7422L13.3668 16.2246C13.1669 16.0611 13.0486 15.852 13.0123 15.5977C12.976 15.3433 13.0208 15.1067 13.148 14.8887L13.3668 14.5078C13.4946 14.308 13.6714 14.1622 13.898 14.0713C14.1248 13.9804 14.3571 13.9713 14.5933 14.0439L15.3834 14.2891C15.5839 14.1445 15.7799 14.0221 15.9703 13.9219C16.1606 13.8217 16.3647 13.7265 16.5826 13.6357L16.7466 12.8721C16.8019 12.6178 16.9244 12.4086 17.1148 12.2451C17.3052 12.0817 17.5275 12 17.7818 12H18.2183ZM17.9996 15.2705C17.4008 15.2713 16.8878 15.4856 16.4605 15.9121C16.0333 16.3387 15.8199 16.8516 15.8199 17.4512C15.8199 18.0507 16.0333 18.5636 16.4605 18.9902C16.8849 19.4146 17.3979 19.6296 17.9996 19.6318C18.6013 19.634 19.1154 19.4209 19.5406 18.9922C19.9658 18.5634 20.1788 18.0494 20.1802 17.4512C20.1817 16.8531 19.9686 16.3402 19.5406 15.9121C19.1125 15.484 18.5985 15.2698 17.9996 15.2705Z" fill="white"/>
<path d="M11.8873 16.209C12.0144 16.4935 12.2046 16.7449 12.4507 16.9531L12.4488 16.9541L12.6675 17.1436C12.6623 17.246 12.6578 17.3485 12.6578 17.4512C12.6578 17.5535 12.6623 17.6557 12.6675 17.7578L12.4507 17.9482C12.109 18.2369 11.8685 18.6109 11.7623 19.0488L11.7242 19.2441C11.6507 19.7456 11.7483 20.2336 12.0006 20.668L12.2632 21.1104L12.2711 21.1221L12.2779 21.1338C12.5264 21.5272 12.8766 21.8242 13.3043 22.0039C13.5949 22.1258 13.8959 22.1771 14.1949 22.1631L14.1802 22.1895C13.9933 22.5132 13.6478 22.7128 13.274 22.7129H10.7271C10.3534 22.7128 10.0078 22.5131 9.82087 22.1895L8.54743 19.9844C8.36053 19.6606 8.36055 19.2613 8.54743 18.9375L9.82087 16.7324C10.0078 16.4088 10.3534 16.2091 10.7271 16.209H11.8873Z" fill="white"/>
<path d="M6.86677 12.5312C7.24052 12.5314 7.58709 12.731 7.77399 13.0547L9.04645 15.2607C9.23319 15.5844 9.2332 15.983 9.04645 16.3066L7.77399 18.5127C7.58709 18.8364 7.2405 19.035 6.86677 19.0352H4.32087C3.94719 19.0352 3.60166 18.8362 3.41462 18.5127L2.14118 16.3066C1.95435 15.9829 1.95437 15.5845 2.14118 15.2607L3.41462 13.0547C3.60165 12.7312 3.94717 12.5312 4.32087 12.5312H6.86677Z" fill="white"/>
<path d="M13.274 8.85449C13.6478 8.85463 13.9933 9.05422 14.1802 9.37793L15.4537 11.583C15.6405 11.9067 15.6405 12.3061 15.4537 12.6299L15.3599 12.791C15.27 12.8393 15.1797 12.8919 15.0904 12.9463L14.7349 12.8359H14.732C14.2576 12.689 13.7669 12.7065 13.3033 12.8936C12.8688 13.0692 12.5074 13.3639 12.2515 13.7666L12.2369 13.7881L12.2232 13.8115L11.9996 14.208C11.7927 14.5656 11.6956 14.9562 11.7037 15.3584H10.7271C10.3534 15.3583 10.0078 15.1586 9.82087 14.835L8.54743 12.6299C8.36053 12.3061 8.36054 11.9068 8.54743 11.583L9.82087 9.37793C10.0078 9.05432 10.3534 8.85463 10.7271 8.85449H13.274Z" fill="white"/>
<path d="M6.86677 5.17676C7.24052 5.17689 7.58709 5.37652 7.77399 5.7002L9.04645 7.90625C9.23319 8.22993 9.2332 8.62848 9.04645 8.95215L7.77399 11.1582C7.58709 11.4819 7.24051 11.6805 6.86677 11.6807H4.32087C3.94718 11.6807 3.60165 11.4817 3.41462 11.1582L2.14118 8.95215C1.95436 8.62842 1.95436 8.22998 2.14118 7.90625L3.41462 5.7002C3.60165 5.37672 3.94718 5.17676 4.32087 5.17676H6.86677Z" fill="white"/>
<path d="M19.6812 5.17676C20.0548 5.177 20.4006 5.37668 20.5875 5.7002L21.8609 7.90625C22.0474 8.22977 22.0474 8.62863 21.8609 8.95215L20.5875 11.1582C20.4635 11.3729 20.268 11.5299 20.0425 11.6133C19.9228 11.4256 19.7734 11.2541 19.5924 11.1064C19.2475 10.8255 18.845 10.6695 18.4175 10.6338L18.233 10.625H17.772C17.2581 10.6252 16.7802 10.7999 16.3873 11.1396C16.3506 11.1714 16.315 11.2047 16.2808 11.2383C16.2625 11.2124 16.2442 11.186 16.2281 11.1582L14.9547 8.95215C14.7679 8.62849 14.7679 8.22992 14.9547 7.90625L16.2281 5.7002C16.4151 5.37666 16.7606 5.17677 17.1343 5.17676H19.6812Z" fill="white"/>
<path d="M13.274 1.5C13.6478 1.50013 13.9933 1.69973 14.1802 2.02344L15.4537 4.22852C15.6405 4.55225 15.6405 4.95165 15.4537 5.27539L14.1802 7.48047C13.9933 7.80418 13.6478 8.00377 13.274 8.00391H10.7271C10.3534 8.00377 10.0078 7.80408 9.82087 7.48047L8.54743 5.27539C8.36054 4.95162 8.36054 4.55229 8.54743 4.22852L9.82087 2.02344C10.0078 1.69983 10.3534 1.50014 10.7271 1.5H13.274Z" fill="white"/>
</svg>
